<?xml version="1.0" encoding="utf-8"?>
<!-- Generator: Adobe Illustrator 24.3.0, SVG Export Plug-In . SVG Version: 6.00 Build 0)  -->
<svg version="1.1" id="Layer_1" xmlns="http://www.w3.org/2000/svg" xmlns:xlink="http://www.w3.org/1999/xlink" x="0px" y="0px"
	 width="16px" height="16px" viewBox="0 0 16 16" enable-background="new 0 0 16 16" xml:space="preserve">
<path d="M9,5V1H2v14h7v1H1V0h8.711L14,4.289V10l-1,1V5H9z M11,7H3V6h8V7z M8,5H3V4h5V5z M3,8h8v1H3V8z M3,10h8v1H3V10z M3,12h6l-1,1
	H3V12z M15.852,11.352L11.5,15.711l-2.102-2.109l0.703-0.703l1.398,1.391l3.648-3.641L15.852,11.352z M10,4h2.289L10,1.711V4z"/>
</svg>
