<?xml version="1.0" encoding="utf-8"?>
<!-- Generator: Adobe Illustrator 24.3.0, SVG Export Plug-In . SVG Version: 6.00 Build 0)  -->
<svg version="1.1" id="Layer_1" xmlns="http://www.w3.org/2000/svg" xmlns:xlink="http://www.w3.org/1999/xlink" x="0px" y="0px"
	 width="16px" height="16px" viewBox="0 0 16 16" enable-background="new 0 0 16 16" xml:space="preserve">
<path d="M15,2v13H0V2h2V1h3c0.458,0,0.899,0.07,1.324,0.211C6.749,1.352,7.141,1.562,7.5,1.844c0.359-0.281,0.751-0.492,1.176-0.633
	C9.1,1.07,9.541,1,10,1h3v1H15z M1,14h6.297c-0.167-0.161-0.336-0.304-0.508-0.426s-0.351-0.227-0.535-0.312
	c-0.185-0.086-0.38-0.151-0.586-0.195C5.462,13.022,5.239,13,5,13H2V3H1V14z M3,12h2c0.349,0,0.692,0.043,1.031,0.129
	C6.37,12.215,6.692,12.344,7,12.516V2.719C6.719,2.484,6.406,2.306,6.062,2.184S5.364,2,5,2H3V12z M14,3h-1v10h-3
	c-0.24,0-0.463,0.022-0.668,0.066c-0.206,0.044-0.401,0.109-0.586,0.195c-0.185,0.086-0.363,0.19-0.535,0.312S7.87,13.839,7.703,14
	H14V3z M10,2C9.635,2,9.281,2.062,8.938,2.184S8.281,2.484,8,2.719v9.797c0.307-0.172,0.63-0.301,0.969-0.387
	C9.307,12.043,9.65,12,10,12h2V2H10z"/>
</svg>
