<?xml version="1.0" encoding="utf-8"?>
<!-- Generator: Adobe Illustrator 24.3.0, SVG Export Plug-In . SVG Version: 6.00 Build 0)  -->
<svg version="1.1" id="Layer_1" xmlns="http://www.w3.org/2000/svg" xmlns:xlink="http://www.w3.org/1999/xlink" x="0px" y="0px"
	 width="16px" height="16px" viewBox="0 0 16 16" enable-background="new 0 0 16 16" xml:space="preserve">
<path d="M8,11c0.136,0,0.253,0.05,0.352,0.148S8.5,11.364,8.5,11.5s-0.05,0.253-0.148,0.352S8.136,12,8,12H7.5
	c-0.141,0-0.259-0.048-0.355-0.145S7,11.641,7,11.5s0.048-0.259,0.145-0.355S7.359,11,7.5,11H8z M9.023,9.531
	c-0.078,0-0.149-0.017-0.215-0.051s-0.125-0.077-0.18-0.129s-0.108-0.108-0.16-0.168S8.367,9.07,8.32,9.023
	C8.222,8.925,8.172,8.808,8.172,8.672S8.222,8.419,8.32,8.32s0.216-0.148,0.352-0.148s0.253,0.05,0.352,0.148
	c0.047,0.047,0.101,0.097,0.16,0.148S9.3,8.574,9.352,8.629s0.095,0.114,0.129,0.18s0.051,0.137,0.051,0.215
	c0,0.136-0.051,0.254-0.152,0.355S9.159,9.531,9.023,9.531z M11.5,9c0.344,0,0.668,0.065,0.973,0.195s0.57,0.309,0.797,0.535
	s0.405,0.492,0.535,0.797S14,11.156,14,11.5s-0.062,0.655-0.184,0.934s-0.296,0.543-0.52,0.793C13.099,13.445,13,13.703,13,14v1
	c0,0.141-0.026,0.271-0.078,0.391s-0.124,0.226-0.215,0.316s-0.196,0.163-0.316,0.215S12.141,16,12,16h-1
	c-0.136,0-0.265-0.026-0.387-0.078s-0.229-0.124-0.32-0.215s-0.163-0.198-0.215-0.32S10,15.136,10,15v-1
	c0-0.151-0.022-0.288-0.066-0.41s-0.118-0.241-0.223-0.355c-0.229-0.255-0.405-0.522-0.527-0.801S9,11.844,9,11.5
	c0-0.349,0.065-0.676,0.195-0.98S9.503,9.95,9.727,9.727s0.488-0.401,0.793-0.531S11.151,9,11.5,9z M13,11.5
	c0-0.208-0.039-0.403-0.117-0.586s-0.185-0.341-0.32-0.477c-0.136-0.136-0.294-0.242-0.477-0.32S11.708,10,11.5,10
	c-0.214,0-0.411,0.038-0.594,0.113s-0.341,0.181-0.477,0.316s-0.241,0.294-0.316,0.477S10,11.286,10,11.5
	c0,0.188,0.024,0.345,0.074,0.473s0.11,0.243,0.184,0.348s0.153,0.207,0.242,0.309s0.172,0.226,0.25,0.371h1.5
	c0.078-0.141,0.161-0.263,0.25-0.367s0.169-0.21,0.242-0.316s0.134-0.223,0.184-0.348S13,11.688,13,11.5z M11.5,8.5
	c-0.136,0-0.253-0.05-0.352-0.148S11,8.136,11,8V7.5c0-0.141,0.048-0.259,0.145-0.355S11.359,7,11.5,7s0.259,0.048,0.355,0.145
	S12,7.359,12,7.5V8c0,0.136-0.05,0.253-0.148,0.352S11.636,8.5,11.5,8.5z M12,15v-1h-1v1H12z M14.828,8.672
	c0,0.136-0.05,0.253-0.148,0.352c-0.047,0.047-0.097,0.101-0.148,0.16s-0.105,0.116-0.16,0.168s-0.114,0.095-0.18,0.129
	s-0.137,0.051-0.215,0.051c-0.136,0-0.254-0.051-0.355-0.152s-0.152-0.22-0.152-0.355c0-0.078,0.017-0.149,0.051-0.215
	s0.077-0.125,0.129-0.18s0.108-0.108,0.168-0.16s0.113-0.102,0.16-0.148c0.099-0.099,0.216-0.148,0.352-0.148
	s0.253,0.05,0.352,0.148S14.828,8.536,14.828,8.672z M15.5,11c0.141,0,0.259,0.048,0.355,0.145S16,11.359,16,11.5
	s-0.048,0.259-0.145,0.355S15.641,12,15.5,12H15c-0.136,0-0.253-0.05-0.352-0.148S14.5,11.636,14.5,11.5s0.05-0.253,0.148-0.352
	S14.864,11,15,11H15.5z M8,14H1V3h1v10h3c0.239,0,0.462,0.022,0.668,0.066c0.117,0.025,0.223,0.072,0.333,0.111
	c-0.108-0.352-0.184-0.719-0.222-1.096C5.522,12.032,5.263,12,5,12H3V2h2c0.364,0,0.719,0.062,1.062,0.184S6.719,2.484,7,2.719
	v5.212c0.292-0.367,0.628-0.696,1-0.983v-4.23c0.281-0.234,0.594-0.413,0.937-0.535C9.281,2.062,9.635,2,10,2h2v3.775
	c0.343,0.03,0.676,0.092,1,0.18V3h1v3.33c0.355,0.173,0.69,0.379,1,0.618V2h-2V1h-3C9.541,1,9.1,1.07,8.676,1.211
	C8.251,1.352,7.859,1.562,7.5,1.844C7.141,1.562,6.748,1.352,6.324,1.211C5.899,1.07,5.458,1,5,1H2v1H0v13h8V14z"/>
</svg>
